<svg width="225" height="62" viewBox="0 0 225 62" fill="none" xmlns="http://www.w3.org/2000/svg">
<path d="M13.3324 49.5909C13.3324 51.0483 13.0692 52.3078 12.543 53.3693C12.0167 54.4309 11.2947 55.2495 10.3771 55.8253C9.45952 56.401 8.41146 56.6889 7.23296 56.6889C6.05445 56.6889 5.00639 56.401 4.08878 55.8253C3.17116 55.2495 2.44922 54.4309 1.92294 53.3693C1.39666 52.3078 1.13352 51.0483 1.13352 49.5909C1.13352 48.1335 1.39666 46.8741 1.92294 45.8125C2.44922 44.7509 3.17116 43.9323 4.08878 43.3565C5.00639 42.7808 6.05445 42.4929 7.23296 42.4929C8.41146 42.4929 9.45952 42.7808 10.3771 43.3565C11.2947 43.9323 12.0167 44.7509 12.543 45.8125C13.0692 46.8741 13.3324 48.1335 13.3324 49.5909ZM11.7131 49.5909C11.7131 48.3944 11.5129 47.3846 11.1126 46.5614C10.7167 45.7383 10.1792 45.1153 9.5 44.6925C8.82528 44.2696 8.0696 44.0582 7.23296 44.0582C6.39631 44.0582 5.63838 44.2696 4.95916 44.6925C4.28445 45.1153 3.74692 45.7383 3.34659 46.5614C2.95076 47.3846 2.75284 48.3944 2.75284 49.5909C2.75284 50.7874 2.95076 51.7972 3.34659 52.6204C3.74692 53.4435 4.28445 54.0665 4.95916 54.4893C5.63838 54.9122 6.39631 55.1236 7.23296 55.1236C8.0696 55.1236 8.82528 54.9122 9.5 54.4893C10.1792 54.0665 10.7167 53.4435 11.1126 52.6204C11.5129 51.7972 11.7131 50.7874 11.7131 49.5909ZM24.2145 46.1364L20.3821 56.5H18.7628L14.9304 46.1364H16.6577L19.5185 54.3949H19.6264L22.4872 46.1364H24.2145ZM30.1003 56.7159C29.1017 56.7159 28.2403 56.4955 27.5161 56.0547C26.7964 55.6094 26.2409 54.9886 25.8496 54.1925C25.4627 53.3918 25.2693 52.4607 25.2693 51.3991C25.2693 50.3376 25.4627 49.402 25.8496 48.5923C26.2409 47.7782 26.7852 47.1439 27.4824 46.6896C28.1841 46.2308 29.0028 46.0014 29.9384 46.0014C30.4781 46.0014 31.0112 46.0914 31.5374 46.2713C32.0637 46.4512 32.5428 46.7436 32.9746 47.1484C33.4064 47.5488 33.7505 48.0795 34.0069 48.7408C34.2633 49.402 34.3915 50.2161 34.3915 51.1832V51.858H26.4028V50.4815H32.7722C32.7722 49.8968 32.6552 49.375 32.4213 48.9162C32.1919 48.4574 31.8635 48.0953 31.4362 47.8299C31.0134 47.5645 30.5141 47.4318 29.9384 47.4318C29.3041 47.4318 28.7554 47.5893 28.2921 47.9041C27.8332 48.2145 27.4801 48.6193 27.2327 49.1186C26.9854 49.6179 26.8617 50.1532 26.8617 50.7244V51.642C26.8617 52.4247 26.9966 53.0882 27.2665 53.6325C27.5409 54.1722 27.921 54.5838 28.4068 54.8672C28.8926 55.1461 29.4571 55.2855 30.1003 55.2855C30.5186 55.2855 30.8965 55.227 31.2338 55.1101C31.5757 54.9886 31.8703 54.8087 32.1177 54.5703C32.3651 54.3274 32.5563 54.026 32.6912 53.6662L34.2296 54.098C34.0676 54.6198 33.7955 55.0786 33.4131 55.4744C33.0308 55.8658 32.5585 56.1716 31.9962 56.392C31.434 56.608 30.802 56.7159 30.1003 56.7159ZM36.6237 56.5V46.1364H38.1621V47.7017H38.27C38.4589 47.1889 38.8008 46.7728 39.2956 46.4535C39.7904 46.1341 40.3481 45.9744 40.9689 45.9744C41.0858 45.9744 41.232 45.9767 41.4075 45.9812C41.5829 45.9857 41.7156 45.9924 41.8055 46.0014V47.6207C41.7516 47.6072 41.6279 47.587 41.4344 47.56C41.2455 47.5285 41.0454 47.5128 40.8339 47.5128C40.3302 47.5128 39.8803 47.6185 39.4845 47.8299C39.0932 48.0368 38.7828 48.3247 38.5534 48.6935C38.3285 49.0579 38.216 49.474 38.216 49.9418V56.5H36.6237ZM46.5528 56.7429C45.896 56.7429 45.3 56.6192 44.7648 56.3718C44.2295 56.1199 43.8044 55.7578 43.4896 55.2855C43.1747 54.8087 43.0173 54.233 43.0173 53.5582C43.0173 52.9645 43.1342 52.4832 43.3681 52.1143C43.602 51.741 43.9146 51.4486 44.306 51.2372C44.6973 51.0258 45.1291 50.8684 45.6014 50.7649C46.0782 50.657 46.5573 50.5715 47.0386 50.5085C47.6683 50.4276 48.1788 50.3668 48.5702 50.3263C48.966 50.2814 49.2539 50.2071 49.4338 50.1037C49.6182 50.0002 49.7104 49.8203 49.7104 49.5639V49.5099C49.7104 48.8442 49.5283 48.3269 49.1639 47.9581C48.8041 47.5893 48.2576 47.4048 47.5244 47.4048C46.7642 47.4048 46.1682 47.5713 45.7364 47.9041C45.3045 48.237 45.0009 48.5923 44.8255 48.9702L43.3141 48.4304C43.584 47.8007 43.9439 47.3104 44.3937 46.9595C44.848 46.6042 45.3428 46.3568 45.8781 46.2173C46.4178 46.0734 46.9486 46.0014 47.4704 46.0014C47.8032 46.0014 48.1856 46.0419 48.6174 46.1229C49.0537 46.1993 49.4743 46.359 49.8791 46.6019C50.2884 46.8448 50.6281 47.2114 50.8979 47.7017C51.1678 48.192 51.3028 48.8487 51.3028 49.6719V56.5H49.7104V55.0966H49.6295C49.5215 55.3215 49.3416 55.5621 49.0897 55.8185C48.8378 56.0749 48.5027 56.2931 48.0844 56.473C47.666 56.6529 47.1555 56.7429 46.5528 56.7429ZM46.7957 55.3125C47.4254 55.3125 47.9562 55.1888 48.388 54.9414C48.8243 54.694 49.1527 54.3746 49.3731 53.9833C49.598 53.592 49.7104 53.1804 49.7104 52.7486V51.2912C49.643 51.3722 49.4945 51.4464 49.2651 51.5138C49.0402 51.5768 48.7793 51.633 48.4825 51.6825C48.1901 51.7275 47.9044 51.768 47.6256 51.804C47.3512 51.8355 47.1285 51.8625 46.9576 51.8849C46.5438 51.9389 46.1569 52.0266 45.7971 52.1481C45.4417 52.265 45.1539 52.4427 44.9334 52.6811C44.7175 52.915 44.6096 53.2344 44.6096 53.6392C44.6096 54.1925 44.8143 54.6108 45.2236 54.8942C45.6374 55.1731 46.1614 55.3125 46.7957 55.3125ZM55.6114 42.6818V56.5H54.0191V42.6818H55.6114ZM59.9302 42.6818V56.5H58.3379V42.6818H59.9302ZM79.1457 47H77.4724C77.3734 46.5187 77.2002 46.0959 76.9528 45.7315C76.7099 45.3672 76.4131 45.0613 76.0622 44.8139C75.7159 44.562 75.3313 44.3731 74.9084 44.2472C74.4856 44.1212 74.0448 44.0582 73.586 44.0582C72.7494 44.0582 71.9914 44.2696 71.3122 44.6925C70.6375 45.1153 70.1 45.7383 69.6996 46.5614C69.3038 47.3846 69.1059 48.3944 69.1059 49.5909C69.1059 50.7874 69.3038 51.7972 69.6996 52.6204C70.1 53.4435 70.6375 54.0665 71.3122 54.4893C71.9914 54.9122 72.7494 55.1236 73.586 55.1236C74.0448 55.1236 74.4856 55.0606 74.9084 54.9347C75.3313 54.8087 75.7159 54.622 76.0622 54.3746C76.4131 54.1228 76.7099 53.8146 76.9528 53.4503C77.2002 53.0814 77.3734 52.6586 77.4724 52.1818H79.1457C79.0197 52.888 78.7903 53.52 78.4575 54.0778C78.1246 54.6355 77.7108 55.1101 77.216 55.5014C76.7212 55.8883 76.1657 56.1829 75.5494 56.3853C74.9377 56.5877 74.2832 56.6889 73.586 56.6889C72.4075 56.6889 71.3594 56.401 70.4418 55.8253C69.5242 55.2495 68.8023 54.4309 68.276 53.3693C67.7497 52.3078 67.4866 51.0483 67.4866 49.5909C67.4866 48.1335 67.7497 46.8741 68.276 45.8125C68.8023 44.7509 69.5242 43.9323 70.4418 43.3565C71.3594 42.7808 72.4075 42.4929 73.586 42.4929C74.2832 42.4929 74.9377 42.5941 75.5494 42.7965C76.1657 42.9989 76.7212 43.2958 77.216 43.6871C77.7108 44.074 78.1246 44.5463 78.4575 45.104C78.7903 45.6573 79.0197 46.2893 79.1457 47ZM87.9749 52.2628V46.1364H89.5673V56.5H87.9749V54.7457H87.867C87.6241 55.272 87.2462 55.7196 86.7334 56.0884C86.2207 56.4528 85.5729 56.6349 84.7903 56.6349C84.1425 56.6349 83.5668 56.4933 83.063 56.2099C82.5592 55.922 82.1634 55.4902 81.8755 54.9144C81.5876 54.3342 81.4437 53.6032 81.4437 52.7216V46.1364H83.036V52.6136C83.036 53.3693 83.2474 53.9721 83.6702 54.4219C84.0976 54.8717 84.6418 55.0966 85.3031 55.0966C85.6989 55.0966 86.1015 54.9954 86.5108 54.793C86.9246 54.5906 87.271 54.2802 87.5499 53.8619C87.8332 53.4435 87.9749 52.9105 87.9749 52.2628ZM99.6346 48.4574L98.2042 48.8622C98.1143 48.6238 97.9816 48.3922 97.8061 48.1673C97.6352 47.9379 97.4013 47.7489 97.1044 47.6005C96.8076 47.4521 96.4275 47.3778 95.9642 47.3778C95.3299 47.3778 94.8014 47.524 94.3786 47.8164C93.9603 48.1043 93.7511 48.4709 93.7511 48.9162C93.7511 49.312 93.895 49.6246 94.1829 49.854C94.4708 50.0835 94.9206 50.2746 95.5323 50.4276L97.0707 50.8054C97.9973 51.0303 98.6878 51.3744 99.1421 51.8377C99.5964 52.2965 99.8235 52.888 99.8235 53.6122C99.8235 54.206 99.6526 54.7367 99.3108 55.2045C98.9734 55.6723 98.5011 56.0412 97.8939 56.3111C97.2866 56.581 96.5804 56.7159 95.7752 56.7159C94.7182 56.7159 93.8433 56.4865 93.1506 56.0277C92.4579 55.5689 92.0193 54.8987 91.8349 54.017L93.3463 53.6392C93.4902 54.197 93.7623 54.6153 94.1627 54.8942C94.5675 55.1731 95.096 55.3125 95.7483 55.3125C96.4904 55.3125 97.0797 55.1551 97.516 54.8402C97.9568 54.5208 98.1772 54.1385 98.1772 53.6932C98.1772 53.3333 98.0513 53.032 97.7994 52.7891C97.5475 52.5417 97.1607 52.3572 96.6389 52.2358L94.9116 51.831C93.9625 51.6061 93.2653 51.2575 92.82 50.7852C92.3792 50.3084 92.1588 49.7124 92.1588 48.9972C92.1588 48.4124 92.323 47.8951 92.6513 47.4453C92.9842 46.9955 93.4362 46.6424 94.0075 46.386C94.5832 46.1296 95.2355 46.0014 95.9642 46.0014C96.9897 46.0014 97.7949 46.2263 98.3797 46.6761C98.9689 47.1259 99.3872 47.7197 99.6346 48.4574ZM106.538 46.1364V47.4858H101.167V46.1364H106.538ZM102.732 43.6534H104.325V53.5312C104.325 53.9811 104.39 54.3184 104.52 54.5433C104.655 54.7637 104.826 54.9122 105.033 54.9886C105.244 55.0606 105.467 55.0966 105.701 55.0966C105.876 55.0966 106.02 55.0876 106.133 55.0696C106.245 55.0471 106.335 55.0291 106.403 55.0156L106.726 56.446C106.619 56.4865 106.468 56.527 106.274 56.5675C106.081 56.6125 105.836 56.6349 105.539 56.6349C105.089 56.6349 104.648 56.5382 104.217 56.3448C103.789 56.1514 103.434 55.8568 103.151 55.4609C102.872 55.0651 102.732 54.5658 102.732 53.9631V43.6534ZM112.842 56.7159C111.906 56.7159 111.085 56.4933 110.379 56.0479C109.677 55.6026 109.129 54.9796 108.733 54.179C108.341 53.3783 108.146 52.4427 108.146 51.3722C108.146 50.2926 108.341 49.3503 108.733 48.5451C109.129 47.7399 109.677 47.1147 110.379 46.6694C111.085 46.2241 111.906 46.0014 112.842 46.0014C113.777 46.0014 114.596 46.2241 115.298 46.6694C116.004 47.1147 116.553 47.7399 116.944 48.5451C117.34 49.3503 117.538 50.2926 117.538 51.3722C117.538 52.4427 117.34 53.3783 116.944 54.179C116.553 54.9796 116.004 55.6026 115.298 56.0479C114.596 56.4933 113.777 56.7159 112.842 56.7159ZM112.842 55.2855C113.552 55.2855 114.137 55.1033 114.596 54.739C115.055 54.3746 115.394 53.8956 115.615 53.3018C115.835 52.7081 115.945 52.0649 115.945 51.3722C115.945 50.6795 115.835 50.034 115.615 49.4357C115.394 48.8375 115.055 48.3539 114.596 47.9851C114.137 47.6162 113.552 47.4318 112.842 47.4318C112.131 47.4318 111.546 47.6162 111.087 47.9851C110.629 48.3539 110.289 48.8375 110.069 49.4357C109.848 50.034 109.738 50.6795 109.738 51.3722C109.738 52.0649 109.848 52.7081 110.069 53.3018C110.289 53.8956 110.629 54.3746 111.087 54.739C111.546 55.1033 112.131 55.2855 112.842 55.2855ZM119.778 56.5V46.1364H121.317V47.7557H121.452C121.668 47.2024 122.016 46.7728 122.498 46.467C122.979 46.1566 123.557 46.0014 124.232 46.0014C124.915 46.0014 125.484 46.1566 125.939 46.467C126.397 46.7728 126.755 47.2024 127.011 47.7557H127.119C127.385 47.2204 127.783 46.7953 128.314 46.4805C128.844 46.1611 129.481 46.0014 130.223 46.0014C131.15 46.0014 131.908 46.2915 132.497 46.8718C133.086 47.4476 133.381 48.3449 133.381 49.5639V56.5H131.788V49.5639C131.788 48.7992 131.579 48.2527 131.161 47.9244C130.743 47.596 130.25 47.4318 129.683 47.4318C128.955 47.4318 128.39 47.6522 127.99 48.093C127.589 48.5294 127.389 49.0826 127.389 49.7528V56.5H125.77V49.402C125.77 48.8127 125.579 48.3382 125.196 47.9783C124.814 47.614 124.321 47.4318 123.719 47.4318C123.305 47.4318 122.918 47.542 122.558 47.7624C122.203 47.9828 121.915 48.2887 121.695 48.68C121.479 49.0669 121.371 49.5144 121.371 50.0227V56.5H119.778ZM140.447 56.7159C139.449 56.7159 138.587 56.4955 137.863 56.0547C137.143 55.6094 136.588 54.9886 136.197 54.1925C135.81 53.3918 135.616 52.4607 135.616 51.3991C135.616 50.3376 135.81 49.402 136.197 48.5923C136.588 47.7782 137.132 47.1439 137.829 46.6896C138.531 46.2308 139.35 46.0014 140.285 46.0014C140.825 46.0014 141.358 46.0914 141.884 46.2713C142.411 46.4512 142.89 46.7436 143.322 47.1484C143.753 47.5488 144.097 48.0795 144.354 48.7408C144.61 49.402 144.738 50.2161 144.738 51.1832V51.858H136.75V50.4815H143.119C143.119 49.8968 143.002 49.375 142.768 48.9162C142.539 48.4574 142.21 48.0953 141.783 47.8299C141.36 47.5645 140.861 47.4318 140.285 47.4318C139.651 47.4318 139.102 47.5893 138.639 47.9041C138.18 48.2145 137.827 48.6193 137.58 49.1186C137.332 49.6179 137.209 50.1532 137.209 50.7244V51.642C137.209 52.4247 137.344 53.0882 137.613 53.6325C137.888 54.1722 138.268 54.5838 138.754 54.8672C139.239 55.1461 139.804 55.2855 140.447 55.2855C140.866 55.2855 141.243 55.227 141.581 55.1101C141.923 54.9886 142.217 54.8087 142.465 54.5703C142.712 54.3274 142.903 54.026 143.038 53.6662L144.577 54.098C144.415 54.6198 144.142 55.0786 143.76 55.4744C143.378 55.8658 142.905 56.1716 142.343 56.392C141.781 56.608 141.149 56.7159 140.447 56.7159ZM146.971 56.5V46.1364H148.509V47.7017H148.617C148.806 47.1889 149.148 46.7728 149.643 46.4535C150.137 46.1341 150.695 45.9744 151.316 45.9744C151.433 45.9744 151.579 45.9767 151.754 45.9812C151.93 45.9857 152.063 45.9924 152.152 46.0014V47.6207C152.099 47.6072 151.975 47.587 151.781 47.56C151.592 47.5285 151.392 47.5128 151.181 47.5128C150.677 47.5128 150.227 47.6185 149.831 47.8299C149.44 48.0368 149.13 48.3247 148.9 48.6935C148.675 49.0579 148.563 49.474 148.563 49.9418V56.5H146.971ZM159.22 56.5V42.6818H163.889C164.968 42.6818 165.854 42.8662 166.547 43.2351C167.24 43.5994 167.753 44.101 168.085 44.7397C168.418 45.3784 168.585 46.1049 168.585 46.919C168.585 47.7332 168.418 48.4551 168.085 49.0849C167.753 49.7146 167.242 50.2094 166.554 50.5692C165.866 50.9246 164.986 51.1023 163.916 51.1023H160.137V49.5909H163.862C164.599 49.5909 165.193 49.483 165.643 49.267C166.097 49.0511 166.426 48.7453 166.628 48.3494C166.835 47.9491 166.938 47.4723 166.938 46.919C166.938 46.3658 166.835 45.8822 166.628 45.4684C166.421 45.0546 166.091 44.7352 165.636 44.5103C165.182 44.2809 164.581 44.1662 163.835 44.1662H160.893V56.5H159.22ZM165.724 50.2926L169.124 56.5H167.181L163.835 50.2926H165.724ZM174.017 56.7429C173.36 56.7429 172.764 56.6192 172.229 56.3718C171.694 56.1199 171.268 55.7578 170.954 55.2855C170.639 54.8087 170.481 54.233 170.481 53.5582C170.481 52.9645 170.598 52.4832 170.832 52.1143C171.066 51.741 171.379 51.4486 171.77 51.2372C172.161 51.0258 172.593 50.8684 173.065 50.7649C173.542 50.657 174.021 50.5715 174.503 50.5085C175.132 50.4276 175.643 50.3668 176.034 50.3263C176.43 50.2814 176.718 50.2071 176.898 50.1037C177.082 50.0002 177.174 49.8203 177.174 49.5639V49.5099C177.174 48.8442 176.992 48.3269 176.628 47.9581C176.268 47.5893 175.722 47.4048 174.988 47.4048C174.228 47.4048 173.632 47.5713 173.2 47.9041C172.769 48.237 172.465 48.5923 172.29 48.9702L170.778 48.4304C171.048 47.8007 171.408 47.3104 171.858 46.9595C172.312 46.6042 172.807 46.3568 173.342 46.2173C173.882 46.0734 174.413 46.0014 174.934 46.0014C175.267 46.0014 175.65 46.0419 176.081 46.1229C176.518 46.1993 176.938 46.359 177.343 46.6019C177.752 46.8448 178.092 47.2114 178.362 47.7017C178.632 48.192 178.767 48.8487 178.767 49.6719V56.5H177.174V55.0966H177.093C176.986 55.3215 176.806 55.5621 176.554 55.8185C176.302 56.0749 175.967 56.2931 175.548 56.473C175.13 56.6529 174.62 56.7429 174.017 56.7429ZM174.26 55.3125C174.889 55.3125 175.42 55.1888 175.852 54.9414C176.288 54.694 176.617 54.3746 176.837 53.9833C177.062 53.592 177.174 53.1804 177.174 52.7486V51.2912C177.107 51.3722 176.959 51.4464 176.729 51.5138C176.504 51.5768 176.243 51.633 175.946 51.6825C175.654 51.7275 175.368 51.768 175.09 51.804C174.815 51.8355 174.593 51.8625 174.422 51.8849C174.008 51.9389 173.621 52.0266 173.261 52.1481C172.906 52.265 172.618 52.4427 172.397 52.6811C172.182 52.915 172.074 53.2344 172.074 53.6392C172.074 54.1925 172.278 54.6108 172.688 54.8942C173.101 55.1731 173.625 55.3125 174.26 55.3125ZM185.99 46.1364V47.4858H180.619V46.1364H185.99ZM182.185 43.6534H183.777V53.5312C183.777 53.9811 183.842 54.3184 183.973 54.5433C184.108 54.7637 184.279 54.9122 184.486 54.9886C184.697 55.0606 184.92 55.0966 185.154 55.0966C185.329 55.0966 185.473 55.0876 185.585 55.0696C185.698 55.0471 185.788 55.0291 185.855 55.0156L186.179 56.446C186.071 56.4865 185.921 56.527 185.727 56.5675C185.534 56.6125 185.289 56.6349 184.992 56.6349C184.542 56.6349 184.101 56.5382 183.669 56.3448C183.242 56.1514 182.887 55.8568 182.603 55.4609C182.324 55.0651 182.185 54.5658 182.185 53.9631V43.6534ZM188.195 56.5V46.1364H189.788V56.5H188.195ZM189.005 44.4091C188.695 44.4091 188.427 44.3034 188.202 44.092C187.982 43.8806 187.872 43.6264 187.872 43.3295C187.872 43.0327 187.982 42.7785 188.202 42.5671C188.427 42.3557 188.695 42.25 189.005 42.25C189.315 42.25 189.581 42.3557 189.801 42.5671C190.026 42.7785 190.139 43.0327 190.139 43.3295C190.139 43.6264 190.026 43.8806 189.801 44.092C189.581 44.3034 189.315 44.4091 189.005 44.4091ZM194.107 50.2656V56.5H192.514V46.1364H194.053V47.7557H194.188C194.43 47.2294 194.799 46.8066 195.294 46.4872C195.789 46.1634 196.428 46.0014 197.21 46.0014C197.912 46.0014 198.526 46.1454 199.052 46.4332C199.579 46.7166 199.988 47.1484 200.28 47.7287C200.573 48.3045 200.719 49.0331 200.719 49.9148V56.5H199.126V50.0227C199.126 49.2086 198.915 48.5743 198.492 48.12C198.069 47.6612 197.489 47.4318 196.751 47.4318C196.243 47.4318 195.789 47.542 195.389 47.7624C194.993 47.9828 194.68 48.3045 194.451 48.7273C194.221 49.1501 194.107 49.6629 194.107 50.2656ZM207.622 60.6023C206.853 60.6023 206.191 60.5033 205.638 60.3054C205.085 60.112 204.624 59.8556 204.255 59.5362C203.891 59.2214 203.6 58.884 203.385 58.5241L204.653 57.6335C204.797 57.8224 204.979 58.0384 205.2 58.2812C205.42 58.5286 205.721 58.7423 206.104 58.9222C206.49 59.1067 206.997 59.1989 207.622 59.1989C208.458 59.1989 209.149 58.9964 209.693 58.5916C210.237 58.1868 210.51 57.5526 210.51 56.6889V54.5838H210.375C210.258 54.7727 210.091 55.0066 209.875 55.2855C209.664 55.5599 209.358 55.805 208.958 56.021C208.562 56.2324 208.027 56.3381 207.352 56.3381C206.515 56.3381 205.764 56.1402 205.098 55.7443C204.437 55.3485 203.913 54.7727 203.526 54.017C203.144 53.2614 202.953 52.3437 202.953 51.2642C202.953 50.2027 203.139 49.2783 203.513 48.4911C203.886 47.6995 204.406 47.0877 205.071 46.6559C205.737 46.2196 206.506 46.0014 207.379 46.0014C208.054 46.0014 208.589 46.1139 208.985 46.3388C209.385 46.5592 209.691 46.8111 209.902 47.0945C210.118 47.3733 210.285 47.6027 210.402 47.7827H210.564V46.1364H212.102V56.7969C212.102 57.6875 211.899 58.4117 211.495 58.9695C211.094 59.5317 210.555 59.9433 209.875 60.2042C209.201 60.4696 208.449 60.6023 207.622 60.6023ZM207.568 54.9077C208.207 54.9077 208.746 54.7615 209.187 54.4691C209.628 54.1767 209.963 53.7562 210.192 53.2074C210.422 52.6586 210.537 52.0019 210.537 51.2372C210.537 50.4905 210.424 49.8316 210.199 49.2603C209.974 48.689 209.641 48.2415 209.201 47.9176C208.76 47.5937 208.216 47.4318 207.568 47.4318C206.893 47.4318 206.331 47.6027 205.881 47.9446C205.436 48.2865 205.101 48.7453 204.876 49.321C204.655 49.8968 204.545 50.5355 204.545 51.2372C204.545 51.9569 204.658 52.5934 204.882 53.1467C205.112 53.6954 205.449 54.1272 205.894 54.4421C206.344 54.7525 206.902 54.9077 207.568 54.9077ZM222.168 48.4574L220.737 48.8622C220.647 48.6238 220.515 48.3922 220.339 48.1673C220.168 47.9379 219.934 47.7489 219.637 47.6005C219.34 47.4521 218.96 47.3778 218.497 47.3778C217.863 47.3778 217.334 47.524 216.912 47.8164C216.493 48.1043 216.284 48.4709 216.284 48.9162C216.284 49.312 216.428 49.6246 216.716 49.854C217.004 50.0835 217.454 50.2746 218.065 50.4276L219.604 50.8054C220.53 51.0303 221.221 51.3744 221.675 51.8377C222.129 52.2965 222.356 52.888 222.356 53.6122C222.356 54.206 222.186 54.7367 221.844 55.2045C221.506 55.6723 221.034 56.0412 220.427 56.3111C219.82 56.581 219.113 56.7159 218.308 56.7159C217.251 56.7159 216.376 56.4865 215.684 56.0277C214.991 55.5689 214.552 54.8987 214.368 54.017L215.879 53.6392C216.023 54.197 216.295 54.6153 216.696 54.8942C217.1 55.1731 217.629 55.3125 218.281 55.3125C219.023 55.3125 219.613 55.1551 220.049 54.8402C220.49 54.5208 220.71 54.1385 220.71 53.6932C220.71 53.3333 220.584 53.032 220.332 52.7891C220.08 52.5417 219.694 52.3572 219.172 52.2358L217.445 51.831C216.495 51.6061 215.798 51.2575 215.353 50.7852C214.912 50.3084 214.692 49.7124 214.692 48.9972C214.692 48.4124 214.856 47.8951 215.184 47.4453C215.517 46.9955 215.969 46.6424 216.54 46.386C217.116 46.1296 217.768 46.0014 218.497 46.0014C219.523 46.0014 220.328 46.2263 220.913 46.6761C221.502 47.1259 221.92 47.7197 222.168 48.4574Z" fill="#1B3764"/>
<path d="M131.837 13.9688C131.837 12.916 131.923 11.8669 132.095 10.8213C132.274 9.76855 132.535 8.74447 132.879 7.74902C133.223 6.74642 133.652 5.7832 134.168 4.85938C134.691 3.92839 135.296 3.06185 135.983 2.25977C136.048 2.18099 136.102 2.12728 136.145 2.09863C136.195 2.06283 136.277 2.04492 136.392 2.04492C136.47 2.04492 136.556 2.08431 136.649 2.16309C136.743 2.24186 136.828 2.33496 136.907 2.44238C136.993 2.5498 137.065 2.65723 137.122 2.76465C137.179 2.86491 137.208 2.9401 137.208 2.99023C137.208 3.09766 137.169 3.2373 137.09 3.40918C136.059 4.9847 135.26 6.64258 134.694 8.38281C134.136 10.123 133.856 12.0029 133.856 14.0225C133.856 15.9775 134.136 17.8216 134.694 19.5547C135.26 21.2806 136.059 22.9313 137.09 24.5068C137.169 24.6501 137.208 24.7897 137.208 24.9258C137.208 24.9759 137.179 25.0511 137.122 25.1514C137.065 25.2588 136.993 25.3662 136.907 25.4736C136.828 25.5811 136.743 25.6742 136.649 25.7529C136.556 25.8317 136.47 25.8711 136.392 25.8711C136.277 25.8711 136.198 25.8532 136.155 25.8174C136.112 25.7887 136.051 25.7314 135.973 25.6455C135.299 24.8363 134.705 23.9697 134.189 23.0459C133.674 22.1292 133.241 21.1732 132.89 20.1777C132.546 19.1823 132.285 18.1618 132.105 17.1162C131.926 16.0706 131.837 15.0215 131.837 13.9688ZM137.751 16.2568C137.751 16.2282 137.751 16.1924 137.751 16.1494C137.751 16.0993 137.751 16.0492 137.751 15.999C137.758 15.9489 137.761 15.9059 137.761 15.8701C137.769 15.8271 137.779 15.7985 137.794 15.7842L144.239 5.93359C144.282 5.86914 144.332 5.82259 144.389 5.79395C144.447 5.75814 144.508 5.73307 144.572 5.71875C144.636 5.70443 144.697 5.69727 144.755 5.69727C144.819 5.6901 144.873 5.68652 144.916 5.68652C144.973 5.68652 145.048 5.6901 145.141 5.69727C145.242 5.69727 145.335 5.70801 145.421 5.72949C145.514 5.74382 145.593 5.76888 145.657 5.80469C145.729 5.84049 145.764 5.89421 145.764 5.96582V14.3662C145.764 14.5023 145.772 14.5811 145.786 14.6025C145.807 14.624 145.868 14.6348 145.968 14.6348H147.762C147.841 14.6348 147.916 14.6419 147.988 14.6562C148.06 14.6706 148.095 14.7279 148.095 14.8281V16.418C148.095 16.5898 148.024 16.6758 147.881 16.6758H145.926C145.847 16.6758 145.8 16.6865 145.786 16.708C145.772 16.7223 145.764 16.7832 145.764 16.8906V20.3818C145.764 20.4176 145.75 20.4749 145.721 20.5537C145.7 20.6325 145.618 20.6719 145.474 20.6719H143.562C143.462 20.6719 143.401 20.6396 143.38 20.5752C143.358 20.5107 143.347 20.4606 143.347 20.4248V16.998C143.347 16.9193 143.344 16.8584 143.337 16.8154C143.337 16.7725 143.322 16.7402 143.294 16.7188C143.265 16.6973 143.222 16.6865 143.165 16.6865C143.107 16.6794 143.025 16.6758 142.918 16.6758H138.223C138.087 16.6758 137.973 16.6328 137.88 16.5469C137.794 16.4538 137.751 16.3571 137.751 16.2568ZM139.781 14.5059C139.781 14.5632 139.802 14.599 139.845 14.6133C139.896 14.6276 139.989 14.6348 140.125 14.6348H143.111C143.204 14.6348 143.261 14.6133 143.283 14.5703C143.312 14.5273 143.333 14.4772 143.347 14.4199V10.1123C143.347 10.012 143.333 9.91895 143.304 9.83301C143.283 9.73991 143.233 9.69336 143.154 9.69336C143.097 9.69336 143.039 9.72201 142.982 9.7793C142.932 9.82943 142.885 9.87598 142.843 9.91895L139.899 14.3232C139.885 14.3376 139.87 14.3555 139.856 14.377C139.849 14.3913 139.838 14.4092 139.824 14.4307C139.81 14.4593 139.795 14.4844 139.781 14.5059ZM149.712 19.1035C149.712 18.86 149.759 18.6309 149.852 18.416C149.945 18.194 150.074 18.0007 150.239 17.8359C150.403 17.6712 150.593 17.5423 150.808 17.4492C151.023 17.3561 151.256 17.3096 151.506 17.3096C151.75 17.3096 151.979 17.3561 152.194 17.4492C152.416 17.5423 152.609 17.6712 152.774 17.8359C152.939 18.0007 153.067 18.194 153.161 18.416C153.254 18.6309 153.3 18.86 153.3 19.1035C153.3 19.3542 153.254 19.5869 153.161 19.8018C153.067 20.0166 152.939 20.2064 152.774 20.3711C152.609 20.5358 152.416 20.6647 152.194 20.7578C151.979 20.8509 151.75 20.8975 151.506 20.8975C151.256 20.8975 151.023 20.8509 150.808 20.7578C150.593 20.6647 150.403 20.5358 150.239 20.3711C150.074 20.2064 149.945 20.0166 149.852 19.8018C149.759 19.5869 149.712 19.3542 149.712 19.1035ZM156.002 17.1055C156.002 16.6615 156.07 16.2568 156.206 15.8916C156.342 15.5192 156.525 15.1755 156.754 14.8604C156.99 14.5381 157.266 14.2373 157.581 13.958C157.896 13.6787 158.236 13.403 158.602 13.1309C158.315 12.8444 158.04 12.5615 157.775 12.2822C157.51 11.9958 157.273 11.6986 157.066 11.3906C156.865 11.0827 156.704 10.7568 156.582 10.4131C156.46 10.0693 156.4 9.68978 156.4 9.27441C156.4 8.7373 156.486 8.25033 156.657 7.81348C156.829 7.36947 157.073 6.98991 157.388 6.6748C157.71 6.3597 158.1 6.11621 158.559 5.94434C159.024 5.7653 159.547 5.67578 160.127 5.67578C160.643 5.67578 161.13 5.75814 161.588 5.92285C162.046 6.08757 162.447 6.32031 162.791 6.62109C163.135 6.91471 163.407 7.26921 163.608 7.68457C163.808 8.09993 163.908 8.55469 163.908 9.04883C163.908 9.25651 163.869 9.47493 163.79 9.7041C163.719 9.93327 163.622 10.1624 163.5 10.3916C163.378 10.6136 163.235 10.8356 163.07 11.0576C162.906 11.2796 162.73 11.4873 162.544 11.6807C162.365 11.8669 162.182 12.0352 161.996 12.1855C161.81 12.3359 161.635 12.4577 161.47 12.5508C161.828 12.8516 162.172 13.1488 162.501 13.4424C162.831 13.7288 163.121 14.0439 163.371 14.3877C163.622 14.7243 163.822 15.1003 163.973 15.5156C164.123 15.9238 164.198 16.3965 164.198 16.9336C164.198 17.4492 164.098 17.9398 163.898 18.4053C163.697 18.8708 163.418 19.279 163.06 19.6299C162.709 19.9736 162.29 20.2493 161.803 20.457C161.323 20.6647 160.804 20.7686 160.245 20.7686C159.694 20.7686 159.16 20.6826 158.645 20.5107C158.136 20.3389 157.685 20.0954 157.291 19.7803C156.897 19.458 156.582 19.0713 156.346 18.6201C156.117 18.1689 156.002 17.6641 156.002 17.1055ZM158.183 17.1699C158.183 17.5566 158.229 17.9219 158.322 18.2656C158.416 18.6022 158.552 18.8994 158.731 19.1572C158.91 19.415 159.128 19.6191 159.386 19.7695C159.644 19.9199 159.937 19.9951 160.267 19.9951C160.46 19.9951 160.657 19.945 160.858 19.8447C161.058 19.7373 161.241 19.5726 161.405 19.3506C161.57 19.1214 161.703 18.8314 161.803 18.4805C161.91 18.1296 161.964 17.707 161.964 17.2129C161.964 16.8978 161.875 16.5827 161.695 16.2676C161.524 15.9453 161.309 15.641 161.051 15.3545C160.8 15.0609 160.528 14.7923 160.235 14.5488C159.948 14.2982 159.69 14.0833 159.461 13.9043C159.039 14.2266 158.72 14.667 158.505 15.2256C158.29 15.7842 158.183 16.4323 158.183 17.1699ZM158.516 8.49023C158.516 8.85547 158.573 9.19564 158.688 9.51074C158.809 9.81868 158.967 10.1087 159.16 10.3809C159.361 10.6458 159.59 10.9001 159.848 11.1436C160.106 11.3799 160.371 11.6126 160.643 11.8418C160.679 11.8776 160.711 11.8955 160.739 11.8955C160.768 11.8955 160.8 11.8848 160.836 11.8633C160.879 11.8346 160.936 11.7881 161.008 11.7236C161.158 11.5661 161.287 11.3835 161.395 11.1758C161.502 10.9681 161.588 10.7497 161.653 10.5205C161.717 10.2842 161.764 10.0407 161.792 9.79004C161.828 9.53939 161.846 9.28874 161.846 9.03809C161.846 8.71582 161.814 8.39714 161.749 8.08203C161.692 7.76693 161.592 7.48763 161.448 7.24414C161.312 7.00065 161.133 6.80371 160.911 6.65332C160.689 6.50293 160.421 6.42773 160.106 6.42773C159.848 6.42773 159.619 6.48503 159.418 6.59961C159.218 6.70703 159.049 6.85384 158.913 7.04004C158.784 7.22624 158.684 7.44466 158.612 7.69531C158.548 7.94596 158.516 8.21094 158.516 8.49023ZM171.219 4.90234H173.26L167.62 20.79H165.59L171.219 4.90234ZM173.996 19.3076C173.996 19.1572 174.032 19.0247 174.103 18.9102C174.182 18.7884 174.279 18.6846 174.393 18.5986C174.515 18.5127 174.651 18.4482 174.801 18.4053C174.959 18.3551 175.116 18.3301 175.274 18.3301C175.539 18.3301 175.786 18.4124 176.015 18.5771C176.244 18.7419 176.47 18.9245 176.692 19.125C176.921 19.3255 177.15 19.5081 177.379 19.6729C177.616 19.8376 177.87 19.9199 178.142 19.9199C178.493 19.9199 178.797 19.859 179.055 19.7373C179.313 19.6156 179.535 19.4544 179.721 19.2539C179.915 19.0534 180.072 18.8242 180.194 18.5664C180.316 18.3086 180.412 18.0436 180.484 17.7715C180.563 17.4993 180.616 17.2344 180.645 16.9766C180.674 16.7116 180.688 16.4717 180.688 16.2568C180.688 15.7484 180.638 15.3115 180.538 14.9463C180.437 14.5811 180.301 14.2695 180.129 14.0117C179.965 13.7539 179.775 13.5462 179.56 13.3887C179.352 13.2311 179.138 13.1094 178.916 13.0234C178.701 12.9303 178.49 12.8695 178.282 12.8408C178.074 12.8122 177.892 12.7979 177.734 12.7979C177.555 12.7979 177.372 12.8265 177.186 12.8838C177 12.9411 176.824 13.0091 176.66 13.0879C176.495 13.1667 176.345 13.249 176.209 13.335C176.08 13.4137 175.976 13.4782 175.897 13.5283C175.854 13.5426 175.818 13.5605 175.79 13.582C175.761 13.5964 175.729 13.6107 175.693 13.625C175.664 13.6393 175.629 13.6536 175.586 13.668C175.543 13.6751 175.485 13.6787 175.414 13.6787C175.256 13.6787 175.131 13.6572 175.038 13.6143C174.945 13.5641 174.894 13.4818 174.887 13.3672L175.21 6.10547H181.182C181.247 6.10547 181.297 6.09473 181.333 6.07324C181.376 6.0446 181.408 6.01237 181.429 5.97656C181.458 5.93359 181.479 5.88704 181.494 5.83691C181.515 5.78678 181.544 5.73307 181.58 5.67578H182.321L182.031 7.98535H176.252L176.09 11.2832C176.219 11.2402 176.37 11.2008 176.542 11.165C176.721 11.1292 176.91 11.1006 177.111 11.0791C177.319 11.0505 177.526 11.029 177.734 11.0146C177.942 10.9932 178.142 10.9824 178.336 10.9824C178.636 10.9824 178.966 11.0218 179.324 11.1006C179.682 11.1794 180.044 11.2975 180.409 11.4551C180.774 11.6126 181.125 11.8132 181.462 12.0566C181.805 12.3001 182.11 12.5902 182.375 12.9268C182.64 13.2562 182.851 13.6357 183.008 14.0654C183.166 14.488 183.245 14.957 183.245 15.4727C183.245 16.1602 183.162 16.7689 182.998 17.2988C182.833 17.8288 182.607 18.2907 182.321 18.6846C182.042 19.0785 181.712 19.4079 181.333 19.6729C180.96 19.9378 180.563 20.1527 180.14 20.3174C179.718 20.4821 179.281 20.6003 178.83 20.6719C178.386 20.7435 177.956 20.7793 177.541 20.7793C177.412 20.7793 177.233 20.7686 177.004 20.7471C176.782 20.7327 176.538 20.7041 176.273 20.6611C176.015 20.6253 175.75 20.5716 175.478 20.5C175.206 20.4284 174.959 20.3389 174.737 20.2314C174.522 20.124 174.343 19.9951 174.2 19.8447C174.064 19.6872 173.996 19.5081 173.996 19.3076ZM189.782 13.9688C189.782 15.0143 189.688 16.0599 189.502 17.1055C189.323 18.1439 189.055 19.1644 188.697 20.167C188.346 21.1624 187.912 22.1221 187.397 23.0459C186.881 23.9769 186.29 24.847 185.624 25.6562C185.567 25.7279 185.51 25.7816 185.452 25.8174C185.402 25.8532 185.327 25.8711 185.227 25.8711C185.148 25.8711 185.062 25.8317 184.969 25.7529C184.876 25.6742 184.786 25.5811 184.701 25.4736C184.622 25.3662 184.554 25.2588 184.496 25.1514C184.439 25.0511 184.41 24.9759 184.41 24.9258C184.41 24.8542 184.418 24.7826 184.432 24.7109C184.446 24.6393 184.475 24.5713 184.518 24.5068C185.556 22.9242 186.355 21.2699 186.913 19.5439C187.472 17.8109 187.751 15.9704 187.751 14.0225C187.751 13.0127 187.68 12.0423 187.536 11.1113C187.393 10.1732 187.186 9.26725 186.913 8.39355C186.641 7.5127 186.301 6.66048 185.893 5.83691C185.492 5.00618 185.034 4.19694 184.518 3.40918C184.475 3.33757 184.446 3.26953 184.432 3.20508C184.418 3.13346 184.41 3.06185 184.41 2.99023C184.41 2.9401 184.439 2.86491 184.496 2.76465C184.554 2.65723 184.622 2.5498 184.701 2.44238C184.786 2.33496 184.876 2.24186 184.969 2.16309C185.062 2.08431 185.148 2.04492 185.227 2.04492C185.334 2.04492 185.409 2.06283 185.452 2.09863C185.495 2.12728 185.556 2.18457 185.635 2.27051C186.33 3.06543 186.935 3.9248 187.451 4.84863C187.973 5.77246 188.407 6.73568 188.75 7.73828C189.094 8.73372 189.352 9.75781 189.524 10.8105C189.696 11.8633 189.782 12.916 189.782 13.9688Z" fill="#1B3764"/>
<circle cx="110" cy="13.5" r="9.5" stroke="#FFCA42"/>
<path d="M110 23.5C108.687 23.5 107.386 23.2413 106.173 22.7388C104.96 22.2362 103.858 21.4997 102.929 20.5711C102 19.6425 101.264 18.5401 100.761 17.3268C100.259 16.1136 100 14.8132 100 13.5C100 12.1868 100.259 10.8864 100.761 9.67316C101.264 8.45991 102 7.35752 102.929 6.42893C103.858 5.50035 104.96 4.76375 106.173 4.2612C107.386 3.75866 108.687 3.5 110 3.5L110 13.5L110 23.5Z" fill="#FFCA42"/>
<circle cx="85" cy="13.5" r="10" fill="#FFCA42"/>
<circle cx="60" cy="13.5" r="10" fill="#FFCA42"/>
<circle cx="35" cy="13.5" r="10" fill="#FFCA42"/>
<circle cx="10" cy="13.5" r="10" fill="#FFCA42"/>
</svg>
