<svg width="76" height="14" viewBox="0 0 76 14" fill="none" xmlns="http://www.w3.org/2000/svg">
<circle cx="69.6667" cy="7.00008" r="5.83333" stroke="#FFCA42"/>
<path d="M69.6667 13.3334C68.835 13.3334 68.0114 13.1696 67.243 12.8513C66.4746 12.533 65.7764 12.0665 65.1883 11.4784C64.6002 10.8903 64.1337 10.1921 63.8154 9.42374C63.4971 8.65535 63.3333 7.83179 63.3333 7.00008C63.3333 6.16838 63.4971 5.34481 63.8154 4.57642C64.1337 3.80802 64.6002 3.10984 65.1883 2.52174C65.7764 1.93363 66.4746 1.46712 67.243 1.14884C68.0114 0.830564 68.835 0.666748 69.6667 0.666748L69.6667 7.00008L69.6667 13.3334Z" fill="#FFCA42"/>
<circle cx="53.8333" cy="7.00008" r="6.33333" fill="#FFCA42"/>
<circle cx="38" cy="7.00008" r="6.33333" fill="#FFCA42"/>
<circle cx="22.1667" cy="7.00008" r="6.33333" fill="#FFCA42"/>
<circle cx="6.33333" cy="7.00008" r="6.33333" fill="#FFCA42"/>
</svg>
